<svg width="18" height="18" viewBox="0 0 18 18" fill="none" xmlns="http://www.w3.org/2000/svg">
<path d="M2.93878 17.2775L3.38599 17.0539L3.38599 17.0539L2.93878 17.2775ZM15.0612 17.2775L15.5084 17.5012L15.5084 17.5012L15.0612 17.2775ZM0.843841 7.10001H17.1562V6.10001H0.843841V7.10001ZM16.9 6.84384V7.37036H17.9V6.84384H16.9ZM14.8631 16.9H3.13692V17.9H14.8631V16.9ZM1.10001 7.37036V6.84384H0.100006V7.37036H1.10001ZM3.38599 17.0539C1.88266 14.0473 1.10001 10.7319 1.10001 7.37036H0.100006C0.100006 10.8871 0.918806 14.3556 2.49156 17.5012L3.38599 17.0539ZM3.13692 16.9C3.2424 16.9 3.33882 16.9596 3.38599 17.0539L2.49156 17.5012C2.61378 17.7456 2.86362 17.9 3.13692 17.9V16.9ZM14.614 17.0539C14.6612 16.9596 14.7576 16.9 14.8631 16.9V17.9C15.1364 17.9 15.3862 17.7456 15.5084 17.5012L14.614 17.0539ZM16.9 7.37036C16.9 10.7319 16.1174 14.0473 14.614 17.0539L15.5084 17.5012C17.0812 14.3556 17.9 10.8871 17.9 7.37036H16.9ZM17.1562 7.10001C17.0147 7.10001 16.9 6.98532 16.9 6.84384H17.9C17.9 6.43303 17.567 6.10001 17.1562 6.10001V7.10001ZM0.843841 6.10001C0.433032 6.10001 0.100006 6.43303 0.100006 6.84384H1.10001C1.10001 6.98532 0.985318 7.10001 0.843841 7.10001V6.10001ZM4.62875 6.85725L8.22875 0.857254L7.37126 0.342758L3.77126 6.34276L4.62875 6.85725ZM9.77126 0.857254L13.3713 6.85725L14.2288 6.34276L10.6288 0.342758L9.77126 0.857254Z" fill="white"/>
</svg>
